P2
5 2
100
21 20 20 21 21
1  13 13 13 13